<svg width="1440" height="1975" viewBox="0 0 1440 1975" fill="none" xmlns="http://www.w3.org/2000/svg">
<g clip-path="url(#clip0_728_653)">
<rect width="1440" height="1975" fill="#C7C7C7"/>
<ellipse cx="318" cy="823.5" rx="254" ry="239.5" fill="#D9D9D9"/>
<path d="M-110.611 166.806C-147.541 121.93 -138.568 55.1328 -91.1032 21.594L98.5926 -112.447C146.287 -146.148 212.592 -131.98 242.347 -81.729L333.314 71.8964C354.004 106.839 351.509 150.825 326.999 183.203L200.249 350.645C161.25 402.165 84.3604 403.727 43.3012 353.833L-110.611 166.806Z" fill="#6777A2"/>
<path d="M1493.5 737.5C1493.5 939.663 1597.24 891.001 1263 441.5C1118.12 246.659 648.001 330.163 648.001 128C648.001 -74.1634 967.788 -120 1228.48 -120C1489.17 -120 1493.5 535.337 1493.5 737.5Z" fill="#938D8D"/>
<path d="M1655 105C1655 318.182 1557 871 1229.5 397C1087.54 191.539 635 249.682 635 36.5C635 -176.682 937.068 -281 1192.5 -281C1447.93 -281 1655 -108.182 1655 105Z" fill="#5D6379"/>
<rect width="1" height="5" fill="#D9D9D9"/>
<path d="M-101.691 137.749C-138.587 92.8693 -129.6 26.1021 -82.1521 -7.42525L95.5381 -132.983C143.215 -166.672 209.493 -152.528 239.265 -102.312L325.623 43.3492C346.306 78.2356 343.87 122.16 319.456 154.545L201.054 311.604C162.095 363.283 85.0542 364.904 43.9551 314.912L-101.691 137.749Z" fill="#4D6298"/>
<line x1="1798.72" y1="-115.188" x2="636.722" y2="988.904" stroke="#BABABA" stroke-opacity="0.68" stroke-width="5"/>
<line x1="1391.74" y1="-222.074" x2="798.322" y2="1266.92" stroke="#BABABA" stroke-opacity="0.68" stroke-width="5"/>
<path d="M0 920H1440V1791H0V920Z" fill="white"/>
<path d="M1592.96 775.961C1599.8 866.199 1570.99 929.124 1138.96 961.875C706.935 994.626 9.91644 1033.96 -30.5378 936.875C-47.1476 522.486 514.217 926.972 837.461 851.462C1160.7 775.952 1586.12 685.724 1592.96 775.961Z" fill="white"/>
<path d="M1274.5 1149.5C1274.5 1248.08 1257.96 1386.5 1158 1386.5C1058.04 1386.5 881 1302.08 881 1203.5C881 1104.92 1058.04 920 1158 920C1257.96 920 1274.5 1050.92 1274.5 1149.5Z" fill="#C7C7C7"/>
</g>
<defs>
<clipPath id="clip0_728_653">
<rect width="1440" height="1975" fill="white"/>
</clipPath>
</defs>
</svg>
