<svg width="1440" height="832" viewBox="0 0 1440 832" fill="none" xmlns="http://www.w3.org/2000/svg">
<g clip-path="url(#clip0_726_578)">
<rect width="1440" height="832" fill="white"/>
<path d="M211.557 270V246.727H215.068V266.977H225.614V270H211.557ZM236.699 270.352C235.063 270.352 233.634 269.977 232.415 269.227C231.195 268.477 230.248 267.428 229.574 266.08C228.9 264.731 228.562 263.155 228.562 261.352C228.562 259.542 228.9 257.958 229.574 256.602C230.248 255.246 231.195 254.193 232.415 253.443C233.634 252.693 235.063 252.318 236.699 252.318C238.335 252.318 239.763 252.693 240.983 253.443C242.203 254.193 243.15 255.246 243.824 256.602C244.498 257.958 244.835 259.542 244.835 261.352C244.835 263.155 244.498 264.731 243.824 266.08C243.15 267.428 242.203 268.477 240.983 269.227C239.763 269.977 238.335 270.352 236.699 270.352ZM236.71 267.5C237.771 267.5 238.65 267.22 239.347 266.659C240.044 266.098 240.559 265.352 240.892 264.42C241.233 263.489 241.403 262.462 241.403 261.341C241.403 260.227 241.233 259.205 240.892 258.273C240.559 257.333 240.044 256.58 239.347 256.011C238.65 255.443 237.771 255.159 236.71 255.159C235.642 255.159 234.756 255.443 234.051 256.011C233.354 256.58 232.835 257.333 232.494 258.273C232.161 259.205 231.994 260.227 231.994 261.341C231.994 262.462 232.161 263.489 232.494 264.42C232.835 265.352 233.354 266.098 234.051 266.659C234.756 267.22 235.642 267.5 236.71 267.5ZM255.946 276.909C254.56 276.909 253.366 276.727 252.366 276.364C251.374 276 250.563 275.519 249.935 274.92C249.306 274.322 248.836 273.667 248.526 272.955L251.446 271.75C251.651 272.083 251.923 272.436 252.264 272.807C252.613 273.186 253.082 273.508 253.673 273.773C254.272 274.038 255.041 274.17 255.98 274.17C257.268 274.17 258.332 273.856 259.173 273.227C260.014 272.606 260.435 271.614 260.435 270.25V266.818H260.219C260.014 267.189 259.719 267.602 259.332 268.057C258.954 268.511 258.431 268.905 257.764 269.239C257.098 269.572 256.23 269.739 255.162 269.739C253.783 269.739 252.541 269.417 251.435 268.773C250.336 268.121 249.465 267.163 248.821 265.898C248.185 264.625 247.866 263.061 247.866 261.205C247.866 259.348 248.181 257.758 248.81 256.432C249.446 255.106 250.317 254.091 251.423 253.386C252.529 252.674 253.783 252.318 255.185 252.318C256.268 252.318 257.143 252.5 257.81 252.864C258.476 253.22 258.995 253.636 259.366 254.114C259.745 254.591 260.037 255.011 260.241 255.375H260.491V252.545H263.821V270.386C263.821 271.886 263.473 273.117 262.776 274.08C262.079 275.042 261.135 275.754 259.946 276.216C258.764 276.678 257.431 276.909 255.946 276.909ZM255.912 266.92C256.889 266.92 257.715 266.693 258.389 266.239C259.071 265.777 259.586 265.117 259.935 264.261C260.291 263.398 260.469 262.364 260.469 261.159C260.469 259.985 260.295 258.951 259.946 258.057C259.598 257.163 259.086 256.466 258.412 255.966C257.738 255.458 256.904 255.205 255.912 255.205C254.889 255.205 254.037 255.47 253.355 256C252.673 256.523 252.158 257.235 251.81 258.136C251.469 259.038 251.298 260.045 251.298 261.159C251.298 262.303 251.473 263.307 251.821 264.17C252.17 265.034 252.685 265.708 253.366 266.193C254.056 266.678 254.904 266.92 255.912 266.92ZM268.378 270V252.545H271.776V270H268.378ZM270.094 249.852C269.503 249.852 268.995 249.655 268.571 249.261C268.154 248.86 267.946 248.383 267.946 247.83C267.946 247.269 268.154 246.792 268.571 246.398C268.995 245.996 269.503 245.795 270.094 245.795C270.685 245.795 271.188 245.996 271.605 246.398C272.029 246.792 272.241 247.269 272.241 247.83C272.241 248.383 272.029 248.86 271.605 249.261C271.188 249.655 270.685 249.852 270.094 249.852ZM279.744 259.636V270H276.347V252.545H279.608V255.386H279.824C280.225 254.462 280.854 253.72 281.71 253.159C282.574 252.598 283.661 252.318 284.972 252.318C286.161 252.318 287.203 252.568 288.097 253.068C288.991 253.561 289.684 254.295 290.176 255.273C290.669 256.25 290.915 257.458 290.915 258.898V270H287.517V259.307C287.517 258.042 287.188 257.053 286.528 256.341C285.869 255.621 284.964 255.261 283.812 255.261C283.025 255.261 282.324 255.432 281.71 255.773C281.104 256.114 280.623 256.614 280.267 257.273C279.919 257.924 279.744 258.712 279.744 259.636Z" fill="black"/>
<ellipse cx="1023" cy="-23" rx="486" ry="250" fill="#5D6379"/>
<path d="M806 -189C806 219.138 495.062 550 111.5 550C-272.062 550 -583 219.138 -583 -189C-583 -597.138 -272.062 -928 111.5 -928C495.062 -928 806 -597.138 806 -189Z" fill="#5D6379"/>
<ellipse cx="410.5" cy="396.5" rx="529.5" ry="275.5" fill="white"/>
<line x1="434.003" y1="122.496" x2="-270.997" y2="1066.5" stroke="#938D8D" stroke-width="5"/>
<ellipse cx="908.5" cy="-190.5" rx="365.5" ry="322.5" fill="#938D8D"/>
<ellipse cx="1434" cy="1340" rx="1288" ry="693" fill="#4D6298" fill-opacity="0.79"/>
<ellipse cx="720" cy="1414" rx="1288" ry="693" fill="#4D6298"/>
<line x1="1442.46" y1="-125.531" x2="1139.46" y2="1462.47" stroke="#BABABA" stroke-opacity="0.68" stroke-width="5"/>
<line x1="904.758" y1="-429.223" x2="-395.242" y2="856.777" stroke="#BABABA" stroke-opacity="0.68" stroke-width="5"/>
</g>
<defs>
<clipPath id="clip0_726_578">
<rect width="1440" height="832" fill="white"/>
</clipPath>
</defs>
</svg>

