<svg width="1440" height="1081" viewBox="0 0 1440 1081" fill="none" xmlns="http://www.w3.org/2000/svg">
<g clip-path="url(#clip0_777_641)">
<rect width="1440" height="1081" fill="white"/>
<path d="M619.73 -148.669C536.831 211.573 289.328 112.319 177.208 253.036C-51.9654 540.662 -134.998 184.926 -218.675 301.191C-268.62 207.044 -125.142 33.1307 101.792 -87.2563C328.725 -207.643 650.054 -280.447 619.73 -148.669Z" fill="#938D8D"/>
<path d="M619.876 -125.878C516.544 211.622 301.19 75.1216 188.91 194.122C-40.5898 437.358 -87.2686 77.5387 -171.957 177.303C-209.536 77.574 -66.3419 -68.7092 147.876 -149.43C362.095 -230.151 657.676 -249.337 619.876 -125.878Z" fill="#5D6379"/>
<rect x="152" y="379" width="1137" height="60" rx="10" fill="white"/>
<rect x="152" y="493" width="1137" height="140" rx="10" fill="white"/>
<ellipse cx="988.755" cy="1118.92" rx="578.5" ry="152.5" transform="rotate(-7.72968 988.755 1118.92)" fill="#6777A2"/>
<ellipse cx="1373" cy="1005.46" rx="114.37" ry="109.066" transform="rotate(-7.72968 1373 1005.46)" fill="#4D6298"/>
<path d="M1472.5 574.5C1483.8 657.767 1662.95 1126.57 1343 1170C1023.05 1213.43 443.802 1282.27 432.5 1199C421.198 1115.73 668.467 984.118 988.421 940.69C1308.37 897.262 1461.2 491.233 1472.5 574.5Z" fill="#D9D9D9"/>
<ellipse cx="988.755" cy="1118.92" rx="578.5" ry="152.5" transform="rotate(-7.72968 988.755 1118.92)" fill="#6777A2"/>
</g>
<defs>
<clipPath id="clip0_777_641">
<rect width="1440" height="1081" fill="white"/>
</clipPath>
</defs>
</svg>
