<svg width="1440" height="1691" viewBox="0 0 1440 1691" fill="none" xmlns="http://www.w3.org/2000/svg">
<g clip-path="url(#clip0_777_768)">
<rect width="1440" height="1691" fill="white"/>
<path d="M1496.04 1183.62C1507.35 1266.89 1686.5 1735.7 1366.54 1779.12C1046.59 1822.55 467.345 1891.39 456.043 1808.12C444.741 1724.86 692.01 1593.24 1011.96 1549.81C1331.92 1506.39 1484.74 1100.36 1496.04 1183.62Z" fill="#D9D9D9"/>
<path d="M750.09 -146.41C601.556 254.385 348.888 76.9896 204.272 213.795C-91.3228 493.426 -123.721 56.797 -233.477 172.05C-272.426 49.5666 -88.3637 -118.297 177.637 -202.884C443.638 -287.47 804.425 -293.022 750.09 -146.41Z" fill="#938D8D"/>
<path d="M619.876 -125.878C516.544 211.622 301.19 75.1221 188.91 194.122C-40.5898 437.358 -87.2686 77.5392 -171.957 177.303C-209.536 77.5745 -66.3419 -68.7087 147.876 -149.43C362.095 -230.15 657.676 -249.337 619.876 -125.878Z" fill="#5D6379"/>
<ellipse cx="990.755" cy="1727.92" rx="578.5" ry="152.5" transform="rotate(-7.72968 990.755 1727.92)" fill="#6777A2"/>
</g>
<defs>
<clipPath id="clip0_777_768">
<rect width="1440" height="1691" fill="white"/>
</clipPath>
</defs>
</svg>
